<svg xmlns="http://www.w3.org/2000/svg" viewBox="0 0 64 64" width="64" height="64">
  <path d="M32 4C18.7 4 8 14.7 8 28c0 8.4 4.3 15.8 10.8 20.1V54c0 1.1.9 2 2 2h6v4h10v-4h6c1.1 0 2-.9 2-2v-5.9C51.7 43.8 56 36.4 56 28 56 14.7 45.3 4 32 4z" fill="#F23535"/>
  <ellipse cx="23" cy="28" rx="5.5" ry="6.5" fill="#000"/>
  <ellipse cx="41" cy="28" rx="5.5" ry="6.5" fill="#000"/>
  <path d="M29 40v6" stroke="#000" stroke-width="2.5" stroke-linecap="round"/>
  <path d="M35 40v6" stroke="#000" stroke-width="2.5" stroke-linecap="round"/>
  <ellipse cx="32" cy="37" rx="3" ry="2" fill="#000"/>
</svg>
